<?xml version="1.0" encoding="utf-8"?>
<!-- Generator: Adobe Illustrator 16.0.0, SVG Export Plug-In . SVG Version: 6.00 Build 0)  -->
<!DOCTYPE svg PUBLIC "-//W3C//DTD SVG 1.1//EN" "http://www.w3.org/Graphics/SVG/1.1/DTD/svg11.dtd">
<svg version="1.1" id="Layer_1" xmlns="http://www.w3.org/2000/svg" xmlns:xlink="http://www.w3.org/1999/xlink" x="0px" y="0px"
	 width="50.074px" height="96px" viewBox="0 0 50.074 96" enable-background="new 0 0 50.074 96" xml:space="preserve">
<g>
	<path fill="#252525" d="M5.946,51.858c-2.276,0-4.448-1.315-5.432-3.53c-1.333-2.998,0.018-6.509,3.016-7.841l38.19-16.973
		c2.996-1.333,6.508,0.016,7.841,3.016c1.332,2.998-0.018,6.508-3.016,7.841L8.355,51.344C7.57,51.693,6.751,51.858,5.946,51.858z"
		/>
</g>
<g>
	<path fill="#252525" d="M5.946,69.68c-2.276,0-4.448-1.315-5.432-3.53c-1.333-2.998,0.018-6.509,3.016-7.841l38.19-16.973
		c2.996-1.334,6.508,0.017,7.841,3.015c1.332,2.998-0.018,6.509-3.016,7.841L8.355,69.166C7.57,69.515,6.751,69.68,5.946,69.68z"/>
</g>
<g>
	<path fill="#252525" d="M32.482,81.56c-3.281,0-5.941-2.659-5.941-5.941v-5.995c0-2.375,1.417-4.524,3.6-5.459l9.722-4.168
		c3.019-1.292,6.509,0.105,7.801,3.12c1.293,3.016-0.104,6.509-3.12,7.801l-6.121,2.624v2.078
		C38.423,78.9,35.763,81.56,32.482,81.56z"/>
</g>
<g>
	<path fill="#252525" d="M12.501,75.619"/>
</g>
<g>
	<path fill="#252525" d="M17.593,81.995c-3.28,0-5.941-2.661-5.941-5.941v-0.436c0-3.281,2.661-5.94,5.941-5.94
		c3.282,0,5.941,2.66,5.941,5.94v0.436C23.534,79.334,20.875,81.995,17.593,81.995z"/>
</g>
<g>
	<path fill="#252525" d="M5.946,34.885c-2.276,0-4.448-1.315-5.432-3.53c-1.333-2.998,0.018-6.508,3.016-7.841L41.72,6.542
		c2.996-1.335,6.508,0.016,7.841,3.016c1.332,2.998-0.018,6.508-3.016,7.841L8.355,34.371C7.57,34.72,6.751,34.885,5.946,34.885z"/>
</g>
<g>
	<path fill="#252525" d="M5.946,17.063c-2.276,0-4.448-1.315-5.432-3.529c-1.333-2.998,0.018-6.509,3.016-7.841l11.651-5.178
		c2.998-1.333,6.509,0.017,7.84,3.016c1.333,2.999-0.017,6.509-3.015,7.841L8.355,16.549C7.57,16.898,6.751,17.063,5.946,17.063z"/>
</g>
<g>
	<path fill="#252525" d="M32.482,95.985h-14.89c-3.28,0-5.941-2.66-5.941-5.94c0-3.282,2.661-5.941,5.941-5.941h14.89
		c3.28,0,5.941,2.659,5.941,5.941C38.423,93.325,35.763,95.985,32.482,95.985z"/>
</g>
</svg>
