<?xml version="1.0" encoding="utf-8"?>
<!-- Generator: Adobe Illustrator 16.0.0, SVG Export Plug-In . SVG Version: 6.00 Build 0)  -->
<!DOCTYPE svg PUBLIC "-//W3C//DTD SVG 1.1//EN" "http://www.w3.org/Graphics/SVG/1.1/DTD/svg11.dtd">
<svg version="1.1" id="Layer_1" xmlns="http://www.w3.org/2000/svg" xmlns:xlink="http://www.w3.org/1999/xlink" x="0px" y="0px"
	 width="72.138px" height="96px" viewBox="0 0 72.138 96" enable-background="new 0 0 72.138 96" xml:space="preserve">
<path fill="#252525" d="M64.607,35.355h-3.212v-9.953c0-13.987-11.38-25.367-25.368-25.367c-13.987,0-25.367,11.379-25.367,25.367
	v9.953H7.448c-4.142,0-7.531,3.389-7.531,7.531v45.583c0,4.142,3.39,7.531,7.531,7.531h57.159c4.142,0,7.531-3.39,7.531-7.531
	V42.886C72.138,38.744,68.749,35.355,64.607,35.355z M39.414,68.883v9.474c0,1.87-1.517,3.386-3.387,3.386
	c-1.869,0-3.386-1.516-3.386-3.386v-9.474c-2.903-1.297-4.93-4.205-4.93-7.59c0-4.592,3.723-8.315,8.315-8.315
	c4.593,0,8.315,3.724,8.315,8.315C44.342,64.679,42.317,67.586,39.414,68.883z M50.859,35.355H21.195v-9.953
	c0-8.178,6.654-14.832,14.832-14.832c8.179,0,14.833,6.654,14.833,14.832V35.355z"/>
</svg>
