<?xml version="1.0" encoding="utf-8"?>
<!-- Generator: Adobe Illustrator 16.0.0, SVG Export Plug-In . SVG Version: 6.00 Build 0)  -->
<!DOCTYPE svg PUBLIC "-//W3C//DTD SVG 1.1//EN" "http://www.w3.org/Graphics/SVG/1.1/DTD/svg11.dtd">
<svg version="1.1" id="Layer_1" xmlns="http://www.w3.org/2000/svg" xmlns:xlink="http://www.w3.org/1999/xlink" x="0px" y="0px"
	 width="104.86px" height="96px" viewBox="0 0 104.86 96" enable-background="new 0 0 104.86 96" xml:space="preserve">
<path fill="#252525" d="M104.86,5.713c0-3.155-2.558-5.713-5.713-5.713H35.74c-3.155,0-5.713,2.558-5.713,5.713v51.151
	c-2.812-1.43-5.983-2.254-9.354-2.254C9.257,54.61,0,63.867,0,75.283s9.257,20.673,20.672,20.673
	c11.417,0,20.674-9.257,20.674-20.673c0-0.022-0.004-0.042-0.004-0.063c0.07-0.354,0.111-0.719,0.111-1.094v-62.7h51.981v45.387
	c-2.784-1.397-5.918-2.203-9.247-2.203c-11.416,0-20.672,9.256-20.672,20.673c0,11.416,9.256,20.672,20.672,20.672
	c11.417,0,20.673-9.256,20.673-20.672c0-0.171-0.021-0.338-0.026-0.506c0.004-0.086,0.026-0.168,0.026-0.255V5.713z"/>
</svg>
