<?xml version="1.0" encoding="utf-8"?>
<!-- Generator: Adobe Illustrator 16.0.0, SVG Export Plug-In . SVG Version: 6.00 Build 0)  -->
<!DOCTYPE svg PUBLIC "-//W3C//DTD SVG 1.1//EN" "http://www.w3.org/Graphics/SVG/1.1/DTD/svg11.dtd">
<svg version="1.1" id="Layer_1" xmlns="http://www.w3.org/2000/svg" xmlns:xlink="http://www.w3.org/1999/xlink" x="0px" y="0px"
	 width="153.015px" height="96px" viewBox="0 0 153.015 96" enable-background="new 0 0 153.015 96" xml:space="preserve">
<g>
	<path fill="none" d="M88.305,30.437c-4.369,0-7.825,3.457-7.825,7.584c0,4.225,3.456,7.536,7.825,7.536
		c4.32,0,7.824-3.312,7.824-7.536C96.129,33.894,92.625,30.437,88.305,30.437z M88.305,41.19c-1.776,0-3.169-1.393-3.169-3.169
		c0-1.728,1.393-3.168,3.169-3.168c1.775,0,3.216,1.44,3.216,3.168C91.521,39.798,90.08,41.19,88.305,41.19z"/>
	<path fill="none" d="M71.745,48.247c0.769-0.769,3.841-4.177,3.841-8.545c0-5.616-4.753-9.217-11.186-9.217
		c-7.393,0-10.896,4.657-10.896,9.265c0,3.072,1.584,5.185,3.889,6.816c-1.104,0.769-5.232,3.888-5.232,8.929
		c0,5.568,4.8,10.225,12.192,10.225c7.633,0,12.098-4.943,12.098-10.08C76.45,52.231,74.481,49.879,71.745,48.247z M64.449,35.861
		c3.12,0,5.136,1.632,5.136,4.561c0,2.784-1.728,4.896-2.256,5.665c-4.08-1.729-7.776-2.929-7.776-6.241
		C59.553,37.638,61.185,35.861,64.449,35.861z M64.4,60.343c-3.312,0-6.048-2.207-6.048-5.52c0-3.072,2.304-4.944,3.216-5.761
		c4.944,2.208,8.545,3.216,8.545,6.481C70.113,58.376,67.473,60.343,64.4,60.343z"/>
	<path fill="none" d="M37.281,42.918c-3.312,0-5.761,1.296-6.865,2.688H30.32c0.864-4.849,3.648-9.409,9.169-9.409
		c1.344,0,2.256,0.24,3.072,0.48c1.152,0.24,1.92,0.048,2.353-1.296l0.575-1.584c0.433-1.296,0-2.16-1.2-2.544
		c-1.104-0.384-3.072-0.768-5.136-0.768c-10.513,0-15.697,9.985-15.697,19.25c0,10.031,6.048,15.984,13.152,15.984
		c6.769,0,11.233-5.424,11.233-11.857C47.842,47.911,43.762,42.918,37.281,42.918z M36.608,60.056c-3.888,0-6.72-4.609-6.72-8.064
		c0-2.4,2.304-3.984,5.328-3.984c4.416,0,6.528,2.832,6.528,6.24C41.745,57.606,39.729,60.056,36.608,60.056z"/>
	<path fill="#252525" d="M67.329,46.087c0.528-0.769,2.256-2.881,2.256-5.665c0-2.928-2.016-4.561-5.136-4.561
		c-3.265,0-4.896,1.776-4.896,3.984C59.553,43.158,63.249,44.358,67.329,46.087z"/>
	<path fill="#252525" d="M35.217,48.007c-3.024,0-5.328,1.584-5.328,3.984c0,3.455,2.832,8.064,6.72,8.064
		c3.121,0,5.137-2.449,5.137-5.809C41.745,50.839,39.633,48.007,35.217,48.007z"/>
	<path fill="#252525" d="M61.568,49.062c-0.912,0.816-3.216,2.688-3.216,5.761c0,3.312,2.736,5.52,6.048,5.52
		c3.072,0,5.713-1.967,5.713-4.799C70.113,52.278,66.513,51.271,61.568,49.062z"/>
	<path fill="#252525" d="M88.305,34.854c-1.776,0-3.169,1.44-3.169,3.168c0,1.776,1.393,3.169,3.169,3.169
		c1.775,0,3.216-1.393,3.216-3.169C91.521,36.293,90.08,34.854,88.305,34.854z"/>
	<path fill="#252525" d="M145.814,0H7.2C3.24,0,0,3.24,0,7.2v81.6C0,92.76,3.24,96,7.2,96h138.614c3.96,0,7.2-3.24,7.2-7.2V7.2
		C153.015,3.24,149.774,0,145.814,0z M36.608,65.72c-7.104,0-13.152-5.953-13.152-15.984c0-9.266,5.185-19.25,15.697-19.25
		c2.063,0,4.032,0.384,5.136,0.768c1.2,0.384,1.633,1.249,1.2,2.544l-0.575,1.584c-0.433,1.344-1.2,1.536-2.353,1.296
		c-0.816-0.24-1.729-0.48-3.072-0.48c-5.521,0-8.305,4.56-9.169,9.409h0.096c1.104-1.393,3.553-2.688,6.865-2.688
		c6.48,0,10.561,4.993,10.561,10.944C47.842,60.296,43.377,65.72,36.608,65.72z M64.353,65.72c-7.393,0-12.192-4.656-12.192-10.225
		c0-5.041,4.128-8.16,5.232-8.929c-2.305-1.632-3.889-3.744-3.889-6.816c0-4.608,3.504-9.265,10.896-9.265
		c6.433,0,11.186,3.601,11.186,9.217c0,4.369-3.072,7.777-3.841,8.545c2.736,1.632,4.705,3.984,4.705,7.393
		C76.45,60.776,71.985,65.72,64.353,65.72z M88.305,45.558c-4.369,0-7.825-3.312-7.825-7.536c0-4.128,3.456-7.584,7.825-7.584
		c4.32,0,7.824,3.457,7.824,7.584C96.129,42.246,92.625,45.558,88.305,45.558z M123.955,67.44l-7.451-9.115h14.903L123.955,67.44z
		 M116.504,39.711l7.451-9.115l7.452,9.115H116.504z"/>
</g>
</svg>
